<svg width="25" height="24" viewBox="0 0 25 24" fill="none" xmlns="http://www.w3.org/2000/svg">
<path d="M21 8V3C21 2.44772 20.5523 2 20 2H6C5.73478 2 5.48043 2.10536 5.29289 2.29289C5.10536 2.48043 5 2.73478 5 3L5 8H7L7 4L19 4V8H21Z" fill="#1D1E21"/>
<path d="M5 20V21C5 21.5523 5.44772 22 6 22L20 22C20.5523 22 21 21.5523 21 21V20H5Z" fill="#1D1E21"/>
<path fill-rule="evenodd" clip-rule="evenodd" d="M11.6285 17.2373C12.1262 16.6572 12.3751 15.8426 12.3751 14.7935V13.4561C12.3679 12.3854 12.1137 11.5547 11.6124 10.9639C11.1111 10.3695 10.4254 10.0723 9.55525 10.0723C8.67081 10.0723 7.97973 10.3748 7.48201 10.98C6.98429 11.5815 6.73543 12.4194 6.73543 13.4937V14.8311C6.74259 15.8659 6.99682 16.6716 7.49813 17.248C7.99943 17.821 8.68872 18.1074 9.566 18.1074C10.4469 18.1074 11.1344 17.8174 11.6285 17.2373ZM10.4898 11.9092C10.6903 12.2529 10.7906 12.7775 10.7906 13.4829V14.8418C10.787 15.5078 10.685 16.0002 10.4845 16.3188C10.2839 16.634 9.97778 16.7915 9.566 16.7915C9.13989 16.7915 8.82479 16.6304 8.62068 16.3081C8.41658 15.9823 8.31453 15.4774 8.31453 14.7935V13.4023C8.32169 12.7256 8.42553 12.2225 8.62605 11.8931C8.82658 11.5601 9.13631 11.3936 9.55525 11.3936C9.97778 11.3936 10.2893 11.5654 10.4898 11.9092Z" fill="#1D1E21"/>
<path fill-rule="evenodd" clip-rule="evenodd" d="M0.97998 18V10.1797H3.04785C3.96094 10.1797 4.68783 10.4697 5.22852 11.0498C5.77279 11.6299 6.05029 12.4248 6.06104 13.4346V14.7021C6.06104 15.7298 5.7889 16.5373 5.24463 17.1245C4.70394 17.7082 3.95736 18 3.00488 18H0.97998ZM2.55908 11.4956V16.6895H3.03174C3.55811 16.6895 3.92871 16.5516 4.14355 16.2759C4.3584 15.9966 4.47119 15.5168 4.48193 14.8364V13.4775C4.48193 12.7471 4.37988 12.2386 4.17578 11.9521C3.97168 11.6621 3.62435 11.5099 3.13379 11.4956H2.55908Z" fill="#1D1E21"/>
<path d="M18.4796 15.395C18.4403 16.2866 18.1896 16.9616 17.7277 17.4199C17.2658 17.8783 16.6141 18.1074 15.7726 18.1074C14.8882 18.1074 14.2096 17.8174 13.737 17.2373C13.2679 16.6536 13.0334 15.8229 13.0334 14.7451V13.4292C13.0334 12.355 13.2768 11.5278 13.7638 10.9478C14.2508 10.3641 14.9276 10.0723 15.7941 10.0723C16.6463 10.0723 17.2926 10.3104 17.7331 10.7866C18.1771 11.2629 18.4295 11.9468 18.4904 12.8384H16.9059C16.8916 12.2869 16.8057 11.9074 16.6481 11.6997C16.4941 11.4884 16.2095 11.3828 15.7941 11.3828C15.3716 11.3828 15.0726 11.5314 14.8971 11.8286C14.7217 12.1222 14.6286 12.6074 14.6178 13.2842V14.7612C14.6178 15.5382 14.7038 16.0718 14.8756 16.3618C15.0511 16.6519 15.3501 16.7969 15.7726 16.7969C16.188 16.7969 16.4744 16.6966 16.632 16.4961C16.7895 16.292 16.8791 15.925 16.9005 15.395H18.4796Z" fill="#1D1E21"/>
<path d="M21.571 12.8652L22.6238 10.1797H24.4338L22.5969 14.0576L24.4768 18H22.6453L21.571 15.2661L20.5022 18H18.6706L20.5505 14.0576L18.7082 10.1797H20.5183L21.571 12.8652Z" fill="#1D1E21"/>
</svg>
