<svg width="74.000000" height="74.000000" viewBox="0 0 74 74" fill="none" xmlns="http://www.w3.org/2000/svg" xmlns:xlink="http://www.w3.org/1999/xlink">
	<desc>
			Created with Pixso.
	</desc>
	<defs/>
	<rect id="Frame 1948754383" rx="37.000000" width="74.000000" height="74.000000" fill="#F4F4F4" fill-opacity="1.000000"/>
	<path id="shape" d="M46.37 44.5C51.55 44.5 55.75 40.3 55.75 35.12C55.75 30.91 52.95 27.28 49.03 26.13C46.98 21.41 42.29 18.25 37 18.25C30.31 18.25 24.79 23.24 23.98 29.71C20.69 30.5 18.25 33.46 18.25 37C18.25 41.14 21.6 44.5 25.75 44.5L27.62 44.5L27.62 40.75L25.75 40.75C23.67 40.75 22 39.07 22 37C22 34.92 23.67 33.25 25.75 33.25C26.78 33.25 27.62 32.41 27.62 31.37C27.62 26.19 31.82 22 37 22C41.03 22 44.58 24.57 45.87 28.33C46.09 28.98 46.65 29.46 47.33 29.58C50.01 30.03 52 32.37 52 35.12C52 38.23 49.48 40.75 46.37 40.75L46.37 44.5ZM35.12 55.75L35.12 43.41L32.71 45.82L30.06 43.17L35.68 37.54C36.41 36.81 37.6 36.81 38.33 37.54L43.96 43.17L41.31 45.82L38.87 43.38L38.87 55.75L35.12 55.75Z" fill="#2B2D33" fill-opacity="1.000000" fill-rule="evenodd"/>
	<path id="shape" d="M46.37 44.5C51.55 44.5 55.75 40.3 55.75 35.12C55.75 30.91 52.95 27.28 49.03 26.13C46.98 21.41 42.29 18.25 37 18.25C30.31 18.25 24.79 23.24 23.98 29.71C20.69 30.5 18.25 33.46 18.25 37C18.25 41.14 21.6 44.5 25.75 44.5L27.62 44.5L27.62 40.75L25.75 40.75C23.67 40.75 22 39.07 22 37C22 34.92 23.67 33.25 25.75 33.25C26.78 33.25 27.62 32.41 27.62 31.37C27.62 26.19 31.82 22 37 22C41.03 22 44.58 24.57 45.87 28.33C46.09 28.98 46.65 29.46 47.33 29.58C50.01 30.03 52 32.37 52 35.12C52 38.23 49.48 40.75 46.37 40.75L46.37 44.5ZM35.12 55.75L35.12 43.41L32.71 45.82L30.06 43.17L35.68 37.54C36.41 36.81 37.6 36.81 38.33 37.54L43.96 43.17L41.31 45.82L38.87 43.38L38.87 55.75L35.12 55.75Z" fill="#000000" fill-opacity="0.200000" fill-rule="evenodd"/>
	<path id="shape" d="M46.37 44.5C51.55 44.5 55.75 40.3 55.75 35.12C55.75 30.91 52.95 27.28 49.03 26.13C46.98 21.41 42.29 18.25 37 18.25C30.31 18.25 24.79 23.24 23.98 29.71C20.69 30.5 18.25 33.46 18.25 37C18.25 41.14 21.6 44.5 25.75 44.5L27.62 44.5L27.62 40.75L25.75 40.75C23.67 40.75 22 39.07 22 37C22 34.92 23.67 33.25 25.75 33.25C26.78 33.25 27.62 32.41 27.62 31.37C27.62 26.19 31.82 22 37 22C41.03 22 44.58 24.57 45.87 28.33C46.09 28.98 46.65 29.46 47.33 29.58C50.01 30.03 52 32.37 52 35.12C52 38.23 49.48 40.75 46.37 40.75L46.37 44.5ZM35.12 55.75L35.12 43.41L32.71 45.82L30.06 43.17L35.68 37.54C36.41 36.81 37.6 36.81 38.33 37.54L43.96 43.17L41.31 45.82L38.87 43.38L38.87 55.75L35.12 55.75Z" fill="#000000" fill-opacity="0.200000" fill-rule="evenodd"/>
	<path id="shape" d="M46.37 44.5C51.55 44.5 55.75 40.3 55.75 35.12C55.75 30.91 52.95 27.28 49.03 26.13C46.98 21.41 42.29 18.25 37 18.25C30.31 18.25 24.79 23.24 23.98 29.71C20.69 30.5 18.25 33.46 18.25 37C18.25 41.14 21.6 44.5 25.75 44.5L27.62 44.5L27.62 40.75L25.75 40.75C23.67 40.75 22 39.07 22 37C22 34.92 23.67 33.25 25.75 33.25C26.78 33.25 27.62 32.41 27.62 31.37C27.62 26.19 31.82 22 37 22C41.03 22 44.58 24.57 45.87 28.33C46.09 28.98 46.65 29.46 47.33 29.58C50.01 30.03 52 32.37 52 35.12C52 38.23 49.48 40.75 46.37 40.75L46.37 44.5ZM35.12 55.75L35.12 43.41L32.71 45.82L30.06 43.17L35.68 37.54C36.41 36.81 37.6 36.81 38.33 37.54L43.96 43.17L41.31 45.82L38.87 43.38L38.87 55.75L35.12 55.75Z" fill="#000000" fill-opacity="0.200000" fill-rule="evenodd"/>
	<path id="shape" d="M46.37 44.5C51.55 44.5 55.75 40.3 55.75 35.12C55.75 30.91 52.95 27.28 49.03 26.13C46.98 21.41 42.29 18.25 37 18.25C30.31 18.25 24.79 23.24 23.98 29.71C20.69 30.5 18.25 33.46 18.25 37C18.25 41.14 21.6 44.5 25.75 44.5L27.62 44.5L27.62 40.75L25.75 40.75C23.67 40.75 22 39.07 22 37C22 34.92 23.67 33.25 25.75 33.25C26.78 33.25 27.62 32.41 27.62 31.37C27.62 26.19 31.82 22 37 22C41.03 22 44.58 24.57 45.87 28.33C46.09 28.98 46.65 29.46 47.33 29.58C50.01 30.03 52 32.37 52 35.12C52 38.23 49.48 40.75 46.37 40.75L46.37 44.5ZM35.12 55.75L35.12 43.41L32.71 45.82L30.06 43.17L35.68 37.54C36.41 36.81 37.6 36.81 38.33 37.54L43.96 43.17L41.31 45.82L38.87 43.38L38.87 55.75L35.12 55.75Z" fill="#000000" fill-opacity="0.200000" fill-rule="evenodd"/>
	<path id="shape" d="M46.37 44.5C51.55 44.5 55.75 40.3 55.75 35.12C55.75 30.91 52.95 27.28 49.03 26.13C46.98 21.41 42.29 18.25 37 18.25C30.31 18.25 24.79 23.24 23.98 29.71C20.69 30.5 18.25 33.46 18.25 37C18.25 41.14 21.6 44.5 25.75 44.5L27.62 44.5L27.62 40.75L25.75 40.75C23.67 40.75 22 39.07 22 37C22 34.92 23.67 33.25 25.75 33.25C26.78 33.25 27.62 32.41 27.62 31.37C27.62 26.19 31.82 22 37 22C41.03 22 44.58 24.57 45.87 28.33C46.09 28.98 46.65 29.46 47.33 29.58C50.01 30.03 52 32.37 52 35.12C52 38.23 49.48 40.75 46.37 40.75L46.37 44.5ZM35.12 55.75L35.12 43.41L32.71 45.82L30.06 43.17L35.68 37.54C36.41 36.81 37.6 36.81 38.33 37.54L43.96 43.17L41.31 45.82L38.87 43.38L38.87 55.75L35.12 55.75Z" fill="#000000" fill-opacity="0.200000" fill-rule="evenodd"/>
	<path id="shape" d="M46.37 44.5C51.55 44.5 55.75 40.3 55.75 35.12C55.75 30.91 52.95 27.28 49.03 26.13C46.98 21.41 42.29 18.25 37 18.25C30.31 18.25 24.79 23.24 23.98 29.71C20.69 30.5 18.25 33.46 18.25 37C18.25 41.14 21.6 44.5 25.75 44.5L27.62 44.5L27.62 40.75L25.75 40.75C23.67 40.75 22 39.07 22 37C22 34.92 23.67 33.25 25.75 33.25C26.78 33.25 27.62 32.41 27.62 31.37C27.62 26.19 31.82 22 37 22C41.03 22 44.58 24.57 45.87 28.33C46.09 28.98 46.65 29.46 47.33 29.58C50.01 30.03 52 32.37 52 35.12C52 38.23 49.48 40.75 46.37 40.75L46.37 44.5ZM35.12 55.75L35.12 43.41L32.71 45.82L30.06 43.17L35.68 37.54C36.41 36.81 37.6 36.81 38.33 37.54L43.96 43.17L41.31 45.82L38.87 43.38L38.87 55.75L35.12 55.75Z" fill="#000000" fill-opacity="0.200000" fill-rule="evenodd"/>
	<path id="shape" d="M46.37 44.5C51.55 44.5 55.75 40.3 55.75 35.12C55.75 30.91 52.95 27.28 49.03 26.13C46.98 21.41 42.29 18.25 37 18.25C30.31 18.25 24.79 23.24 23.98 29.71C20.69 30.5 18.25 33.46 18.25 37C18.25 41.14 21.6 44.5 25.75 44.5L27.62 44.5L27.62 40.75L25.75 40.75C23.67 40.75 22 39.07 22 37C22 34.92 23.67 33.25 25.75 33.25C26.78 33.25 27.62 32.41 27.62 31.37C27.62 26.19 31.82 22 37 22C41.03 22 44.58 24.57 45.87 28.33C46.09 28.98 46.65 29.46 47.33 29.58C50.01 30.03 52 32.37 52 35.12C52 38.23 49.48 40.75 46.37 40.75L46.37 44.5ZM35.12 55.75L35.12 43.41L32.71 45.82L30.06 43.17L35.68 37.54C36.41 36.81 37.6 36.81 38.33 37.54L43.96 43.17L41.31 45.82L38.87 43.38L38.87 55.75L35.12 55.75Z" fill="#000000" fill-opacity="0.200000" fill-rule="evenodd"/>
	<path id="shape" d="M46.37 44.5C51.55 44.5 55.75 40.3 55.75 35.12C55.75 30.91 52.95 27.28 49.03 26.13C46.98 21.41 42.29 18.25 37 18.25C30.31 18.25 24.79 23.24 23.98 29.71C20.69 30.5 18.25 33.46 18.25 37C18.25 41.14 21.6 44.5 25.75 44.5L27.62 44.5L27.62 40.75L25.75 40.75C23.67 40.75 22 39.07 22 37C22 34.92 23.67 33.25 25.75 33.25C26.78 33.25 27.62 32.41 27.62 31.37C27.62 26.19 31.82 22 37 22C41.03 22 44.58 24.57 45.87 28.33C46.09 28.98 46.65 29.46 47.33 29.58C50.01 30.03 52 32.37 52 35.12C52 38.23 49.48 40.75 46.37 40.75L46.37 44.5ZM35.12 55.75L35.12 43.41L32.71 45.82L30.06 43.17L35.68 37.54C36.41 36.81 37.6 36.81 38.33 37.54L43.96 43.17L41.31 45.82L38.87 43.38L38.87 55.75L35.12 55.75Z" fill="#000000" fill-opacity="0.200000" fill-rule="evenodd"/>
	<path id="shape" d="M46.37 44.5C51.55 44.5 55.75 40.3 55.75 35.12C55.75 30.91 52.95 27.28 49.03 26.13C46.98 21.41 42.29 18.25 37 18.25C30.31 18.25 24.79 23.24 23.98 29.71C20.69 30.5 18.25 33.46 18.25 37C18.25 41.14 21.6 44.5 25.75 44.5L27.62 44.5L27.62 40.75L25.75 40.75C23.67 40.75 22 39.07 22 37C22 34.92 23.67 33.25 25.75 33.25C26.78 33.25 27.62 32.41 27.62 31.37C27.62 26.19 31.82 22 37 22C41.03 22 44.58 24.57 45.87 28.33C46.09 28.98 46.65 29.46 47.33 29.58C50.01 30.03 52 32.37 52 35.12C52 38.23 49.48 40.75 46.37 40.75L46.37 44.5ZM35.12 55.75L35.12 43.41L32.71 45.82L30.06 43.17L35.68 37.54C36.41 36.81 37.6 36.81 38.33 37.54L43.96 43.17L41.31 45.82L38.87 43.38L38.87 55.75L35.12 55.75Z" fill="#000000" fill-opacity="0.200000" fill-rule="evenodd"/>
	<path id="shape" d="M46.37 44.5C51.55 44.5 55.75 40.3 55.75 35.12C55.75 30.91 52.95 27.28 49.03 26.13C46.98 21.41 42.29 18.25 37 18.25C30.31 18.25 24.79 23.24 23.98 29.71C20.69 30.5 18.25 33.46 18.25 37C18.25 41.14 21.6 44.5 25.75 44.5L27.62 44.5L27.62 40.75L25.75 40.75C23.67 40.75 22 39.07 22 37C22 34.92 23.67 33.25 25.75 33.25C26.78 33.25 27.62 32.41 27.62 31.37C27.62 26.19 31.82 22 37 22C41.03 22 44.58 24.57 45.87 28.33C46.09 28.98 46.65 29.46 47.33 29.58C50.01 30.03 52 32.37 52 35.12C52 38.23 49.48 40.75 46.37 40.75L46.37 44.5ZM35.12 55.75L35.12 43.41L32.71 45.82L30.06 43.17L35.68 37.54C36.41 36.81 37.6 36.81 38.33 37.54L43.96 43.17L41.31 45.82L38.87 43.38L38.87 55.75L35.12 55.75Z" fill="#000000" fill-opacity="0.200000" fill-rule="evenodd"/>
	<path id="shape" d="M46.37 44.5C51.55 44.5 55.75 40.3 55.75 35.12C55.75 30.91 52.95 27.28 49.03 26.13C46.98 21.41 42.29 18.25 37 18.25C30.31 18.25 24.79 23.24 23.98 29.71C20.69 30.5 18.25 33.46 18.25 37C18.25 41.14 21.6 44.5 25.75 44.5L27.62 44.5L27.62 40.75L25.75 40.75C23.67 40.75 22 39.07 22 37C22 34.92 23.67 33.25 25.75 33.25C26.78 33.25 27.62 32.41 27.62 31.37C27.62 26.19 31.82 22 37 22C41.03 22 44.58 24.57 45.87 28.33C46.09 28.98 46.65 29.46 47.33 29.58C50.01 30.03 52 32.37 52 35.12C52 38.23 49.48 40.75 46.37 40.75L46.37 44.5ZM35.12 55.75L35.12 43.41L32.71 45.82L30.06 43.17L35.68 37.54C36.41 36.81 37.6 36.81 38.33 37.54L43.96 43.17L41.31 45.82L38.87 43.38L38.87 55.75L35.12 55.75Z" fill="#000000" fill-opacity="0.200000" fill-rule="evenodd"/>
	<path id="shape" d="M46.37 44.5C51.55 44.5 55.75 40.3 55.75 35.12C55.75 30.91 52.95 27.28 49.03 26.13C46.98 21.41 42.29 18.25 37 18.25C30.31 18.25 24.79 23.24 23.98 29.71C20.69 30.5 18.25 33.46 18.25 37C18.25 41.14 21.6 44.5 25.75 44.5L27.62 44.5L27.62 40.75L25.75 40.75C23.67 40.75 22 39.07 22 37C22 34.92 23.67 33.25 25.75 33.25C26.78 33.25 27.62 32.41 27.62 31.37C27.62 26.19 31.82 22 37 22C41.03 22 44.58 24.57 45.87 28.33C46.09 28.98 46.65 29.46 47.33 29.58C50.01 30.03 52 32.37 52 35.12C52 38.23 49.48 40.75 46.37 40.75L46.37 44.5ZM35.12 55.75L35.12 43.41L32.71 45.82L30.06 43.17L35.68 37.54C36.41 36.81 37.6 36.81 38.33 37.54L43.96 43.17L41.31 45.82L38.87 43.38L38.87 55.75L35.12 55.75Z" fill="#000000" fill-opacity="0.200000" fill-rule="evenodd"/>
	<path id="shape" d="M46.37 44.5C51.55 44.5 55.75 40.3 55.75 35.12C55.75 30.91 52.95 27.28 49.03 26.13C46.98 21.41 42.29 18.25 37 18.25C30.31 18.25 24.79 23.24 23.98 29.71C20.69 30.5 18.25 33.46 18.25 37C18.25 41.14 21.6 44.5 25.75 44.5L27.62 44.5L27.62 40.75L25.75 40.75C23.67 40.75 22 39.07 22 37C22 34.92 23.67 33.25 25.75 33.25C26.78 33.25 27.62 32.41 27.62 31.37C27.62 26.19 31.82 22 37 22C41.03 22 44.58 24.57 45.87 28.33C46.09 28.98 46.65 29.46 47.33 29.58C50.01 30.03 52 32.37 52 35.12C52 38.23 49.48 40.75 46.37 40.75L46.37 44.5ZM35.12 55.75L35.12 43.41L32.71 45.82L30.06 43.17L35.68 37.54C36.41 36.81 37.6 36.81 38.33 37.54L43.96 43.17L41.31 45.82L38.87 43.38L38.87 55.75L35.12 55.75Z" fill="#000000" fill-opacity="0.200000" fill-rule="evenodd"/>
	<path id="shape" d="M46.37 44.5C51.55 44.5 55.75 40.3 55.75 35.12C55.75 30.91 52.95 27.28 49.03 26.13C46.98 21.41 42.29 18.25 37 18.25C30.31 18.25 24.79 23.24 23.98 29.71C20.69 30.5 18.25 33.46 18.25 37C18.25 41.14 21.6 44.5 25.75 44.5L27.62 44.5L27.62 40.75L25.75 40.75C23.67 40.75 22 39.07 22 37C22 34.92 23.67 33.25 25.75 33.25C26.78 33.25 27.62 32.41 27.62 31.37C27.62 26.19 31.82 22 37 22C41.03 22 44.58 24.57 45.87 28.33C46.09 28.98 46.65 29.46 47.33 29.58C50.01 30.03 52 32.37 52 35.12C52 38.23 49.48 40.75 46.37 40.75L46.37 44.5ZM35.12 55.75L35.12 43.41L32.71 45.82L30.06 43.17L35.68 37.54C36.41 36.81 37.6 36.81 38.33 37.54L43.96 43.17L41.31 45.82L38.87 43.38L38.87 55.75L35.12 55.75Z" fill="#000000" fill-opacity="0.200000" fill-rule="evenodd"/>
	<path id="shape" d="M46.37 44.5C51.55 44.5 55.75 40.3 55.75 35.12C55.75 30.91 52.95 27.28 49.03 26.13C46.98 21.41 42.29 18.25 37 18.25C30.31 18.25 24.79 23.24 23.98 29.71C20.69 30.5 18.25 33.46 18.25 37C18.25 41.14 21.6 44.5 25.75 44.5L27.62 44.5L27.62 40.75L25.75 40.75C23.67 40.75 22 39.07 22 37C22 34.92 23.67 33.25 25.75 33.25C26.78 33.25 27.62 32.41 27.62 31.37C27.62 26.19 31.82 22 37 22C41.03 22 44.58 24.57 45.87 28.33C46.09 28.98 46.65 29.46 47.33 29.58C50.01 30.03 52 32.37 52 35.12C52 38.23 49.48 40.75 46.37 40.75L46.37 44.5ZM35.12 55.75L35.12 43.41L32.71 45.82L30.06 43.17L35.68 37.54C36.41 36.81 37.6 36.81 38.33 37.54L43.96 43.17L41.31 45.82L38.87 43.38L38.87 55.75L35.12 55.75Z" fill="#000000" fill-opacity="0.200000" fill-rule="evenodd"/>
</svg>
