<svg width="24" height="24" viewBox="0 0 24 24" fill="none" xmlns="http://www.w3.org/2000/svg">
<path d="M20 3V8H18V4L6 4L6 8H4L4 3C4 2.73478 4.10536 2.48043 4.29289 2.29289C4.48043 2.10536 4.73478 2 5 2H19C19.5523 2 20 2.44772 20 3Z" fill="#1D1E21"/>
<path d="M20 20V21C20 21.2685 19.8942 21.5122 19.722 21.6919C19.7171 21.697 19.7121 21.7021 19.7071 21.7071C19.7021 21.7121 19.697 21.7171 19.6919 21.722C19.5122 21.8942 19.2685 22 19 22L5 22C4.44772 22 4 21.5523 4 21V20L20 20Z" fill="#1D1E21"/>
<path d="M22.2629 17.1138C21.9586 17.4432 21.5844 17.6921 21.1404 17.8604C20.6999 18.0251 20.2165 18.1074 19.6902 18.1074C18.7914 18.1074 18.0932 17.8299 17.5955 17.2749C17.0977 16.7163 16.8417 15.9053 16.8274 14.8418V13.4346C16.8274 12.3568 17.0619 11.5278 17.531 10.9478C18.0037 10.3641 18.6912 10.0723 19.5935 10.0723C20.4421 10.0723 21.0813 10.2817 21.511 10.7007C21.9442 11.1196 22.1949 11.7767 22.2629 12.6719H20.7268C20.6838 12.1742 20.58 11.8358 20.4153 11.6567C20.2506 11.4741 19.9928 11.3828 19.6418 11.3828C19.2157 11.3828 18.906 11.5386 18.7126 11.8501C18.5193 12.1616 18.419 12.6576 18.4119 13.3379V14.7559C18.4119 15.4684 18.5175 15.9876 18.7288 16.3135C18.9436 16.6357 19.2945 16.7969 19.7815 16.7969C20.093 16.7969 20.3455 16.7342 20.5388 16.6089L20.6785 16.5122V15.0781H19.572V13.8857H22.2629V17.1138Z" fill="#1D1E21"/>
<path d="M5.02881 10.1797H3.44971V15.5186C3.44971 16.3708 3.22054 16.7969 2.76221 16.7969C2.30745 16.7969 2.08008 16.4281 2.08008 15.6904H0.495605C0.495605 16.4495 0.694336 17.0422 1.0918 17.4683C1.48926 17.8944 2.04606 18.1074 2.76221 18.1074C3.42822 18.1074 3.97249 17.8783 4.39502 17.4199C4.81755 16.9616 5.02881 16.3529 5.02881 15.5938V10.1797Z" fill="#1D1E21"/>
<path fill-rule="evenodd" clip-rule="evenodd" d="M7.51863 15.25V18H5.93953V10.1797H8.60359C9.37703 10.1797 9.99292 10.4196 10.4513 10.8994C10.9132 11.3792 11.1441 12.0023 11.1441 12.7686C11.1441 13.5348 10.9167 14.14 10.462 14.584C10.0072 15.028 9.37703 15.25 8.57137 15.25H7.51863ZM7.51863 13.9341H8.60359C8.90438 13.9341 9.13712 13.8356 9.30184 13.6387C9.46655 13.4417 9.54891 13.1553 9.54891 12.7793C9.54891 12.389 9.46476 12.0793 9.29646 11.8501C9.12817 11.6174 8.90259 11.4992 8.61971 11.4956H7.51863V13.9341Z" fill="#1D1E21"/>
<path d="M15.9113 14.6162H13.4513V16.6895H16.3625V18H11.8722V10.1797H16.3517V11.4956H13.4513V13.3433H15.9113V14.6162Z" fill="#1D1E21"/>
</svg>
