<svg width="24" height="24" viewBox="0 0 24 24" fill="none" xmlns="http://www.w3.org/2000/svg">
<path d="M16 20L4 20L4 4L16 4V8H18V3C18 2.44772 17.5523 2 17 2H3C2.73478 2 2.48043 2.10536 2.29289 2.29289C2.10536 2.48043 2 2.73478 2 3V21C2 21.5523 2.44772 22 3 22L16 22L16 20Z" fill="#1D1E21"/>
<path d="M22.6536 17.8604C23.0976 17.6921 23.4718 17.4432 23.7762 17.1138V13.8857H21.0853V15.0781H22.1917V16.5122L22.0521 16.6089C21.8587 16.7342 21.6063 16.7969 21.2947 16.7969C20.8078 16.7969 20.4568 16.6357 20.242 16.3135C20.0307 15.9876 19.9251 15.4684 19.9251 14.7559V13.3379C19.9323 12.6576 20.0325 12.1616 20.2259 11.8501C20.4192 11.5386 20.729 11.3828 21.1551 11.3828C21.506 11.3828 21.7638 11.4741 21.9285 11.6567C22.0932 11.8358 22.1971 12.1742 22.24 12.6719H23.7762C23.7081 11.7767 23.4575 11.1196 23.0242 10.7007C22.5945 10.2817 21.9554 10.0723 21.1067 10.0723C20.2044 10.0723 19.5169 10.3641 19.0442 10.9478C18.5752 11.5278 18.3406 12.3568 18.3406 13.4346V14.8418C18.355 15.9053 18.611 16.7163 19.1087 17.2749C19.6064 17.8299 20.3047 18.1074 21.2034 18.1074C21.7298 18.1074 22.2132 18.0251 22.6536 17.8604Z" fill="#1D1E21"/>
<path d="M8.93628 10.1797H10.5154V15.5938C10.5154 16.3529 10.3041 16.9616 9.88159 17.4199C9.45907 17.8783 8.9148 18.1074 8.24878 18.1074C7.53264 18.1074 6.97583 17.8944 6.57837 17.4683C6.18091 17.0422 5.98218 16.4495 5.98218 15.6904H7.56665C7.56665 16.4281 7.79403 16.7969 8.24878 16.7969C8.70711 16.7969 8.93628 16.3708 8.93628 15.5186V10.1797Z" fill="#1D1E21"/>
<path fill-rule="evenodd" clip-rule="evenodd" d="M13.5552 15.25V18H11.9761V10.1797H14.6402C15.4136 10.1797 16.0295 10.4196 16.4878 10.8994C16.9497 11.3792 17.1807 12.0023 17.1807 12.7686C17.1807 13.5348 16.9533 14.14 16.4986 14.584C16.0438 15.028 15.4136 15.25 14.6079 15.25H13.5552ZM13.5552 13.9341H14.6402C14.9409 13.9341 15.1737 13.8356 15.3384 13.6387C15.5031 13.4417 15.5855 13.1553 15.5855 12.7793C15.5855 12.389 15.5013 12.0793 15.333 11.8501C15.1647 11.6174 14.9392 11.4992 14.6563 11.4956H13.5552V13.9341Z" fill="#1D1E21"/>
</svg>
