<svg width="24" height="24" viewBox="0 0 24 24" fill="none" xmlns="http://www.w3.org/2000/svg">
<g id="png">
<g id="Shape">
<path d="M15 20L3 20L3 4L15 4V8H17V3C17 2.44772 16.5523 2 16 2H2C1.73478 2 1.48043 2.10536 1.29289 2.29289C1.10536 2.48043 1 2.73478 1 3V21C1 21.5523 1.44772 22 2 22L15 22L15 20Z" fill="#1D1E21"/>
<path fill-rule="evenodd" clip-rule="evenodd" d="M7.13062 15.25V18H5.55152V10.1797H8.21558C8.98902 10.1797 9.6049 10.4196 10.0632 10.8994C10.5251 11.3792 10.7561 12.0023 10.7561 12.7686C10.7561 13.5348 10.5287 14.14 10.074 14.584C9.61922 15.028 8.98902 15.25 8.18335 15.25H7.13062ZM7.13062 13.9341H8.21558C8.51636 13.9341 8.74911 13.8356 8.91382 13.6387C9.07853 13.4417 9.16089 13.1553 9.16089 12.7793C9.16089 12.389 9.07674 12.0793 8.90845 11.8501C8.74015 11.6174 8.51457 11.4992 8.23169 11.4956H7.13062V13.9341Z" fill="#1D1E21"/>
<path d="M13.0391 13.6L15.56 18.0203H17.16V10.2H15.56V15L12.96 10.2H11.46V18.0203H13.0391V13.6Z" fill="#1D1E21"/>
<path d="M22.313 17.7881C22.757 17.6198 23.1312 17.3709 23.4355 17.0415V13.8135H20.7446V15.0059H21.8511V16.4399L21.7114 16.5366C21.5181 16.662 21.2656 16.7246 20.9541 16.7246C20.4671 16.7246 20.1162 16.5635 19.9014 16.2412C19.6901 15.9154 19.5845 15.3962 19.5845 14.6836V13.2656C19.5916 12.5853 19.6919 12.0894 19.8853 11.7778C20.0786 11.4663 20.3883 11.3106 20.8145 11.3106C21.1654 11.3106 21.4232 11.4019 21.5879 11.5845C21.7526 11.7635 21.8564 12.1019 21.8994 12.5996H23.4355C23.3675 11.7044 23.1169 11.0474 22.6836 10.6284C22.2539 10.2095 21.6147 10 20.7661 10C19.8638 10 19.1763 10.2918 18.7036 10.8755C18.2345 11.4556 18 12.2845 18 13.3623V14.7695C18.0143 15.833 18.2703 16.644 18.7681 17.2026C19.2658 17.7577 19.964 18.0352 20.8628 18.0352C21.3892 18.0352 21.8726 17.9528 22.313 17.7881Z" fill="#1D1E21"/>
</g>
</g>
</svg>
